<?xml version="1.0" encoding="utf-8"?>
<!-- Generator: Adobe Illustrator 24.0.1, SVG Export Plug-In . SVG Version: 6.00 Build 0)  -->
<svg version="1.1" id="Logo_x5F_Main_x5F_Color" xmlns="http://www.w3.org/2000/svg" xmlns:xlink="http://www.w3.org/1999/xlink"
	 x="0px" y="0px" viewBox="0 0 500 280" style="enable-background:new 0 0 500 280;" xml:space="preserve">
<style type="text/css">
	.st0{fill-rule:evenodd;clip-rule:evenodd;fill:#82D318;}
	.st1{fill-rule:evenodd;clip-rule:evenodd;}
</style>
<g>
	<g>
		<circle class="st0" cx="146.4" cy="140" r="44.8"/>
		<path class="st1" d="M152.5,139.2l-2.1-3.1c-3.7-5.2-8-9.9-12.9-13.9c-8.3-7.1-18.6-11.4-29.5-12.3c-13.8-0.6-27.4,4.1-37.8,13.2
			c-3.2,2.6-6.1,5.5-8.7,8.7c0,0,0,0-0.1,0c-0.2,0.1-0.4,0.1-0.5-0.1c-3-5.3-5.3-10.9-7-16.7l0-0.1c-0.5-1.2-1.4-2.2-2.7-2.7
			c-1-0.4-2.2-0.4-3.2,0.1c-1.9,1-2.9,3.2-2.5,5.3l0,0.1c2.1,7.6,5.3,14.9,9.5,21.6c0.2,0.4,0.2,0.8,0,1.2c-4.2,6.7-7.4,14-9.5,21.7
			l0,0.1v0.1c0,1.9,1.1,3.7,2.9,4.5c0.5,0.2,1.1,0.4,1.7,0.4c1.5,0,2.9-0.8,3.7-2.1l0.1-0.1l0-0.1c1.7-5.8,4-11.5,7-16.7
			c0,0,0,0,0-0.1c0.1-0.1,0.4-0.2,0.5,0c2.6,3.2,5.6,6.1,8.7,8.7c9.6,8.4,21.9,13.1,34.7,13.4c1,0,2.1,0,3.1-0.1
			c10.9-0.9,21.2-5.2,29.5-12.3c4.9-4,9.3-8.7,12.9-13.9l2.1-3.1C152.8,140.3,152.8,139.7,152.5,139.2z M141.6,140.8
			c-5.2,6.5-17.1,18.8-34.1,20c-15,1-29.8-6.8-40.5-20.1c-0.3-0.4-0.3-0.9,0-1.3c10.7-13.3,25.5-21.1,40.5-20.1
			c17,1.2,29,13.5,34.1,20C141.9,139.7,141.9,140.3,141.6,140.8z"/>
		<path class="st1" d="M125.3,135.4c2.5,0.3,4.4,2.6,4.1,5.2c-0.3,2.5-2.6,4.4-5.2,4.1c-2.3-0.3-4.1-2.3-4.1-4.6
			c0-2.6,2.1-4.6,4.7-4.6C124.9,135.4,125.1,135.4,125.3,135.4L125.3,135.4z"/>
	</g>
	<g>
		<g>
			<g>
				<path d="M391.6,121.7c1.3,0,2.4-0.4,3.2-1.1c0.8-0.8,1.3-1.7,1.3-3c0-1.2-0.4-2.2-1.3-2.9c-0.8-0.7-1.9-1.1-3.2-1.1
					c-1.3,0-2.4,0.4-3.2,1.1c-0.8,0.7-1.2,1.7-1.2,2.9c0,1.2,0.4,2.2,1.2,3C389.2,121.4,390.3,121.7,391.6,121.7z"/>
				<path d="M392,126.5h-15.7v-0.9c0-1.6,0.4-2.9,1.1-3.7c0.7-0.8,1.9-1.3,3.5-1.5l1.2-0.1c0.9-0.1,1.5-0.4,2-0.9
					c0.5-0.5,0.8-1.2,0.8-2.1c0-1.3-0.6-2.9-3.3-2.9c-0.4,0-0.7,0-0.9,0.1l-1.3,0.1c-3.4,0.3-6.1,1.5-8,3.6
					c-1.9,2.1-2.8,4.9-2.8,8.3h-2.4c-2.9,0-3.5,1.6-3.5,3c0,1.4,0.6,3,3.5,3h2.4v18.5c0,1.2,0.4,2.1,1.1,2.7
					c0.7,0.6,1.6,0.9,2.7,0.9c1.1,0,2-0.3,2.7-0.9c0.7-0.6,1.1-1.5,1.1-2.7v-18.5h11.5v18.5c0,1.2,0.4,2.1,1.1,2.7
					c0.7,0.6,1.6,0.9,2.7,0.9c1.1,0,2-0.3,2.7-1c0.7-0.6,1.1-1.6,1.1-2.7v-21.5C395.4,128.1,394.8,126.5,392,126.5z"/>
			</g>
			<path d="M422.9,142c-0.6-1.1-1.7-1.9-3.2-2.6c-1.4-0.7-3.4-1.3-5.9-1.8c-2.3-0.5-3.8-0.9-4.6-1.4c-0.7-0.4-1-1-1-1.8
				c0-0.8,0.3-1.5,1-2c0.7-0.5,1.7-0.8,3-0.8c1.1,0,2,0.1,2.8,0.4c0.8,0.3,1.7,0.7,2.7,1.2c0.6,0.3,1.1,0.6,1.5,0.8
				c0.4,0.2,0.9,0.3,1.3,0.3c0.7,0,1.3-0.3,1.8-0.9c0.5-0.6,0.7-1.3,0.7-2.1c0-1.3-0.7-2.4-1.9-3.2c-1.2-0.8-2.5-1.3-4-1.7
				c-1.5-0.4-3-0.6-4.6-0.6c-2.2,0-4.2,0.4-5.9,1.1c-1.7,0.7-3.1,1.8-4.1,3.2c-1,1.4-1.5,2.9-1.5,4.6c0,2.2,0.8,4,2.3,5.3
				c1.5,1.3,3.9,2.2,7.2,2.9c1.8,0.4,3.2,0.8,4.1,1.1c0.8,0.3,1.4,0.6,1.7,0.9c0.3,0.3,0.4,0.7,0.4,1.2c0,0.8-0.4,1.4-1.1,1.8
				c-0.8,0.5-2,0.7-3.4,0.7c-1.5,0-2.7-0.1-3.6-0.4c-1-0.3-2-0.7-3.2-1.2c-1.2-0.6-2.1-0.9-2.8-0.9c-0.7,0-1.3,0.3-1.8,0.8
				c-0.5,0.5-0.7,1.2-0.7,2c0,1.4,0.7,2.5,1.9,3.3c2.5,1.6,5.9,2.4,9.9,2.4c3.5,0,6.4-0.8,8.5-2.3c2.2-1.6,3.3-3.7,3.3-6.3
				C423.9,144.4,423.5,143.1,422.9,142z"/>
			<path d="M444.7,125.8c-2,0-3.8,0.4-5.4,1.2c-1.2,0.6-2.3,1.4-3.1,2.5v-11.8c0-1.1-0.4-1.9-1.1-2.5c-0.7-0.6-1.6-0.9-2.7-0.9
				c-1.1,0-2.1,0.3-2.8,1c-0.7,0.7-1.1,1.5-1.1,2.6v33.1c0,1.1,0.3,2,1,2.7c0.7,0.7,1.6,1,2.8,1c1.2,0,2.1-0.3,2.8-1
				c0.7-0.7,1.1-1.6,1.1-2.7v-12.3c0-2,0.6-3.6,1.7-4.8c1.1-1.2,2.6-1.8,4.5-1.8c1.6,0,2.7,0.4,3.5,1.2c0.7,0.8,1.1,2.2,1.1,4v13.6
				c0,1.1,0.4,2,1.1,2.7c0.7,0.7,1.6,1,2.8,1c1.2,0,2.1-0.3,2.8-1c0.7-0.7,1-1.6,1-2.7v-13.6C454.5,129.7,451.2,125.8,444.7,125.8z"
				/>
		</g>
		<path d="M226,142c-0.6-1.1-1.7-1.9-3.2-2.6c-1.4-0.7-3.4-1.3-5.9-1.8c-2.3-0.5-3.8-0.9-4.6-1.4c-0.7-0.4-1-1-1-1.8
			c0-0.8,0.3-1.5,1-2c0.7-0.5,1.7-0.8,3-0.8c1.1,0,2,0.1,2.8,0.4c0.8,0.3,1.7,0.7,2.7,1.2c0.6,0.3,1.1,0.6,1.5,0.8
			c0.4,0.2,0.9,0.3,1.3,0.3c0.7,0,1.3-0.3,1.8-0.9c0.5-0.6,0.7-1.3,0.7-2.1c0-1.3-0.7-2.4-1.9-3.2c-1.2-0.8-2.5-1.3-4-1.7
			c-1.5-0.4-3-0.6-4.6-0.6c-2.2,0-4.2,0.4-5.9,1.1c-1.7,0.7-3.1,1.8-4.1,3.2c-1,1.4-1.5,2.9-1.5,4.6c0,2.2,0.8,4,2.3,5.3
			c1.5,1.3,3.9,2.2,7.2,2.9c1.8,0.4,3.2,0.8,4.1,1.1c0.8,0.3,1.4,0.6,1.7,0.9c0.3,0.3,0.4,0.7,0.4,1.2c0,0.8-0.4,1.4-1.1,1.8
			c-0.8,0.5-2,0.7-3.4,0.7c-1.5,0-2.7-0.1-3.6-0.4c-1-0.3-2-0.7-3.2-1.2c-1.2-0.6-2.1-0.9-2.8-0.9c-0.7,0-1.3,0.3-1.8,0.8
			c-0.5,0.5-0.7,1.2-0.7,2c0,1.4,0.7,2.5,1.9,3.3c2.5,1.6,5.9,2.4,9.9,2.4c3.5,0,6.4-0.8,8.5-2.3c2.2-1.6,3.3-3.7,3.3-6.3
			C227,144.4,226.6,143.1,226,142z"/>
		<path d="M246.7,148.7l-1.5-0.1c-2.3-0.2-3.4-1.5-3.4-4v-12.2h4.3c1.1,0,1.9-0.3,2.5-0.7c0.6-0.5,0.9-1.3,0.9-2.2
			c0-1-0.3-1.7-0.9-2.2c-0.6-0.5-1.5-0.7-2.5-0.7h-4.3v-4.7c0-1.1-0.4-2-1.1-2.6c-0.7-0.7-1.6-1-2.7-1c-1.2,0-2.1,0.3-2.8,1
			c-0.7,0.7-1.1,1.5-1.1,2.6v4.7h-2.4c-1.1,0-1.9,0.3-2.5,0.7c-0.6,0.5-0.9,1.3-0.9,2.2c0,1,0.3,1.7,0.9,2.2
			c0.6,0.5,1.4,0.7,2.5,0.7h2.4v11.7c0,6.4,3.2,9.9,9.6,10.3l1.5,0.1c0.2,0,0.4,0,0.5,0c1.1,0,2.1-0.2,2.7-0.7
			c0.8-0.5,1.2-1.3,1.2-2.3C249.8,150.3,249.3,148.9,246.7,148.7z"/>
		<path d="M274.2,128.7c-1.9-1.9-4.8-2.9-8.6-2.9c-1.8,0-3.6,0.2-5.4,0.6c-1.8,0.4-3.4,1-4.7,1.7c-0.8,0.4-1.4,0.9-1.7,1.4
			c-0.4,0.5-0.5,1.1-0.5,1.8c0,0.9,0.2,1.6,0.7,2.1c0.5,0.6,1.1,0.8,1.9,0.8c0.5,0,1.2-0.2,2.2-0.7c1.5-0.6,2.8-1,3.9-1.3
			c1.1-0.3,2.1-0.5,3.2-0.5c1.6,0,2.8,0.4,3.5,1.1c0.7,0.8,1.1,2,1.1,3.7v0.9h-1c-4,0-7.2,0.3-9.5,0.8c-2.4,0.5-4.1,1.4-5.1,2.6
			c-1.1,1.2-1.6,2.9-1.6,4.9c0,1.7,0.4,3.2,1.3,4.5c0.9,1.3,2.1,2.4,3.6,3.2c1.5,0.8,3.2,1.1,5.1,1.1c1.8,0,3.5-0.4,4.9-1.3
			c1-0.6,1.8-1.4,2.4-2.3c0,1,0.4,1.8,1,2.4c0.7,0.7,1.6,1,2.6,1c1.1,0,2-0.3,2.7-1c0.7-0.6,1-1.5,1-2.6v-13.5
			C277,133.6,276,130.6,274.2,128.7z M269.7,141.9v0.8c0,1.8-0.6,3.4-1.6,4.5c-1.1,1.2-2.5,1.7-4.2,1.7c-1.1,0-2.1-0.3-2.8-1
			c-0.8-0.7-1.1-1.6-1.1-2.6c0-0.9,0.3-1.5,0.8-2c0.5-0.5,1.5-0.9,2.7-1.1c1.3-0.2,3.3-0.3,5.7-0.3H269.7z"/>
		<path d="M308,148.2l-9.3-8.4l8.4-7.8c0.8-0.8,1.2-1.6,1.2-2.6c0-0.9-0.4-1.8-1-2.5c-0.7-0.7-1.5-1-2.5-1c-0.9,0-1.8,0.4-2.5,1.1
			l-11.2,10.7v-19.9c0-1.2-0.4-2.1-1.1-2.7c-0.7-0.6-1.6-0.9-2.7-0.9c-1.1,0-2,0.3-2.7,0.9c-0.7,0.6-1.1,1.5-1.1,2.7v33
			c0,1.2,0.4,2.1,1.1,2.7c0.7,0.6,1.6,0.9,2.7,0.9c1.1,0,2-0.3,2.7-0.9c0.7-0.6,1.1-1.5,1.1-2.7v-8.6l12.3,11.2
			c0.8,0.7,1.6,1.1,2.5,1.1c0.9,0,1.7-0.4,2.4-1.1c0.7-0.7,1-1.6,1-2.5C309.2,149.9,308.8,149,308,148.2z"/>
		<path d="M334.9,146.1c-0.6,0-1.4,0.3-2.6,0.9c-1.1,0.5-2.1,0.9-3,1.2c-0.9,0.3-1.9,0.4-3,0.4c-2.2,0-3.9-0.6-5.1-1.7
			c-1.1-1.1-1.8-2.7-2-5h15.9c1.1,0,2.5-0.5,2.5-2.7c0-2.7-0.5-5.1-1.5-7.1c-1-2-2.5-3.6-4.3-4.7c-1.9-1.1-4.1-1.7-6.5-1.7
			c-2.6,0-5,0.6-7,1.8c-2.1,1.2-3.7,2.9-4.8,5.1c-1.1,2.2-1.7,4.7-1.7,7.5c0,4.4,1.3,8,3.9,10.6c2.6,2.6,6.2,3.9,10.6,3.9
			c1.5,0,3-0.2,4.6-0.6c1.6-0.4,3.1-1,4.3-1.7c1.5-0.8,2.2-1.9,2.2-3.2c0-0.9-0.2-1.6-0.7-2.2C336.2,146.4,335.6,146.1,334.9,146.1z
			 M330.9,137.5h-11.7c0.3-1.9,0.9-3.4,1.9-4.5c1-1.1,2.5-1.7,4.2-1.7c1.8,0,3.1,0.5,4,1.6C330.3,134.1,330.8,135.6,330.9,137.5z"/>
		<path class="st1" d="M351.8,135.4c2.5,0.3,4.4,2.6,4.1,5.2c-0.3,2.5-2.6,4.4-5.2,4.1c-2.3-0.3-4.1-2.3-4.1-4.6
			c0-2.6,2.1-4.6,4.7-4.6C351.5,135.4,351.7,135.4,351.8,135.4L351.8,135.4z"/>
	</g>
</g>
</svg>
